<svg xmlns="http://www.w3.org/2000/svg" width="375" viewBox="0 0 375 375" height="375" version="1.0"><defs><clipPath id="a"><path d="M 106.898438 84.636719 L 268.054688 84.636719 L 268.054688 212.136719 L 106.898438 212.136719 Z M 106.898438 84.636719"/></clipPath></defs><g clip-path="url(#a)"><path fill="#100F0D" d="M 259.515625 210.539062 L 166.261719 120.476562 L 187.476562 87.011719 L 265.765625 210.507812 L 259.582031 210.507812 Z M 230.996094 210.539062 L 200.207031 155.519531 L 257.214844 210.507812 L 231.0625 210.507812 Z M 175.667969 210.539062 L 178.496094 175.792969 L 227.972656 210.507812 L 175.703125 210.507812 Z M 176.789062 176.84375 L 174.023438 210.539062 L 149.320312 210.539062 Z M 196.621094 152.53125 L 228.070312 208.605469 L 179.023438 174.089844 Z M 165.539062 122.117188 L 195.636719 151.152344 L 147.183594 210.539062 L 135.441406 210.539062 Z M 162.183594 126.90625 L 133.695312 210.507812 L 109.191406 210.507812 Z M 267.9375 210.902344 L 188.167969 85.007812 C 187.921875 84.628906 187.414062 84.519531 187.03125 84.765625 C 186.933594 84.828125 186.851562 84.910156 186.785156 85.007812 L 107.019531 210.902344 C 106.785156 211.289062 106.90625 211.792969 107.292969 212.027344 C 107.417969 212.105469 107.5625 212.144531 107.710938 212.148438 L 267.246094 212.148438 C 267.699219 212.140625 268.0625 211.769531 268.054688 211.316406 C 268.054688 211.167969 268.011719 211.027344 267.9375 210.902344"/></g><g fill="#100F0D"><g><g><path d="M 3.1875 0.046875 C 2.65625 0.046875 2.175781 -0.0664062 1.75 -0.296875 C 1.332031 -0.535156 1 -0.859375 0.75 -1.265625 C 0.507812 -1.679688 0.390625 -2.144531 0.390625 -2.65625 C 0.390625 -3.175781 0.507812 -3.640625 0.75 -4.046875 C 1 -4.460938 1.332031 -4.785156 1.75 -5.015625 C 2.175781 -5.253906 2.65625 -5.375 3.1875 -5.375 C 3.582031 -5.375 3.945312 -5.304688 4.28125 -5.171875 C 4.613281 -5.035156 4.898438 -4.84375 5.140625 -4.59375 L 4.78125 -4.234375 C 4.363281 -4.660156 3.835938 -4.875 3.203125 -4.875 C 2.785156 -4.875 2.398438 -4.773438 2.046875 -4.578125 C 1.703125 -4.390625 1.429688 -4.125 1.234375 -3.78125 C 1.046875 -3.445312 0.953125 -3.070312 0.953125 -2.65625 C 0.953125 -2.25 1.046875 -1.875 1.234375 -1.53125 C 1.429688 -1.195312 1.703125 -0.929688 2.046875 -0.734375 C 2.398438 -0.546875 2.785156 -0.453125 3.203125 -0.453125 C 3.835938 -0.453125 4.363281 -0.664062 4.78125 -1.09375 L 5.140625 -0.734375 C 4.898438 -0.484375 4.613281 -0.289062 4.28125 -0.15625 C 3.945312 -0.0195312 3.582031 0.046875 3.1875 0.046875 Z M 3.1875 0.046875" transform="translate(161.677 249.935)"/></g></g></g><g fill="#100F0D"><g><g><path d="M 3.203125 0.046875 C 2.671875 0.046875 2.191406 -0.0664062 1.765625 -0.296875 C 1.335938 -0.535156 1 -0.859375 0.75 -1.265625 C 0.507812 -1.679688 0.390625 -2.144531 0.390625 -2.65625 C 0.390625 -3.175781 0.507812 -3.640625 0.75 -4.046875 C 1 -4.460938 1.335938 -4.785156 1.765625 -5.015625 C 2.191406 -5.253906 2.671875 -5.375 3.203125 -5.375 C 3.722656 -5.375 4.195312 -5.253906 4.625 -5.015625 C 5.050781 -4.785156 5.382812 -4.460938 5.625 -4.046875 C 5.863281 -3.640625 5.984375 -3.175781 5.984375 -2.65625 C 5.984375 -2.144531 5.863281 -1.679688 5.625 -1.265625 C 5.382812 -0.859375 5.050781 -0.535156 4.625 -0.296875 C 4.195312 -0.0664062 3.722656 0.046875 3.203125 0.046875 Z M 3.203125 -0.453125 C 3.617188 -0.453125 3.992188 -0.546875 4.328125 -0.734375 C 4.671875 -0.929688 4.9375 -1.195312 5.125 -1.53125 C 5.320312 -1.875 5.421875 -2.25 5.421875 -2.65625 C 5.421875 -3.070312 5.320312 -3.445312 5.125 -3.78125 C 4.9375 -4.125 4.671875 -4.390625 4.328125 -4.578125 C 3.992188 -4.773438 3.617188 -4.875 3.203125 -4.875 C 2.773438 -4.875 2.390625 -4.773438 2.046875 -4.578125 C 1.703125 -4.390625 1.429688 -4.125 1.234375 -3.78125 C 1.046875 -3.445312 0.953125 -3.070312 0.953125 -2.65625 C 0.953125 -2.25 1.046875 -1.875 1.234375 -1.53125 C 1.429688 -1.195312 1.703125 -0.929688 2.046875 -0.734375 C 2.390625 -0.546875 2.773438 -0.453125 3.203125 -0.453125 Z M 3.203125 -0.453125" transform="translate(167.905 249.935)"/></g></g></g><g fill="#100F0D"><g><g><path d="M 0.875 -5.328125 L 1.4375 -5.328125 L 1.4375 -0.484375 L 4.40625 -0.484375 L 4.40625 0 L 0.875 0 Z M 0.875 -5.328125" transform="translate(175.046 249.935)"/></g></g></g><g fill="#100F0D"><g><g><path d="M 3.203125 0.046875 C 2.671875 0.046875 2.191406 -0.0664062 1.765625 -0.296875 C 1.335938 -0.535156 1 -0.859375 0.75 -1.265625 C 0.507812 -1.679688 0.390625 -2.144531 0.390625 -2.65625 C 0.390625 -3.175781 0.507812 -3.640625 0.75 -4.046875 C 1 -4.460938 1.335938 -4.785156 1.765625 -5.015625 C 2.191406 -5.253906 2.671875 -5.375 3.203125 -5.375 C 3.722656 -5.375 4.195312 -5.253906 4.625 -5.015625 C 5.050781 -4.785156 5.382812 -4.460938 5.625 -4.046875 C 5.863281 -3.640625 5.984375 -3.175781 5.984375 -2.65625 C 5.984375 -2.144531 5.863281 -1.679688 5.625 -1.265625 C 5.382812 -0.859375 5.050781 -0.535156 4.625 -0.296875 C 4.195312 -0.0664062 3.722656 0.046875 3.203125 0.046875 Z M 3.203125 -0.453125 C 3.617188 -0.453125 3.992188 -0.546875 4.328125 -0.734375 C 4.671875 -0.929688 4.9375 -1.195312 5.125 -1.53125 C 5.320312 -1.875 5.421875 -2.25 5.421875 -2.65625 C 5.421875 -3.070312 5.320312 -3.445312 5.125 -3.78125 C 4.9375 -4.125 4.671875 -4.390625 4.328125 -4.578125 C 3.992188 -4.773438 3.617188 -4.875 3.203125 -4.875 C 2.773438 -4.875 2.390625 -4.773438 2.046875 -4.578125 C 1.703125 -4.390625 1.429688 -4.125 1.234375 -3.78125 C 1.046875 -3.445312 0.953125 -3.070312 0.953125 -2.65625 C 0.953125 -2.25 1.046875 -1.875 1.234375 -1.53125 C 1.429688 -1.195312 1.703125 -0.929688 2.046875 -0.734375 C 2.390625 -0.546875 2.773438 -0.453125 3.203125 -0.453125 Z M 3.203125 -0.453125" transform="translate(180.286 249.935)"/></g></g></g><g fill="#100F0D"><g><g><path d="M 4.5 0 L 3.28125 -1.71875 C 3.144531 -1.695312 3.003906 -1.6875 2.859375 -1.6875 L 1.4375 -1.6875 L 1.4375 0 L 0.875 0 L 0.875 -5.328125 L 2.859375 -5.328125 C 3.535156 -5.328125 4.066406 -5.164062 4.453125 -4.84375 C 4.835938 -4.519531 5.03125 -4.070312 5.03125 -3.5 C 5.03125 -3.082031 4.925781 -2.726562 4.71875 -2.4375 C 4.507812 -2.15625 4.207031 -1.953125 3.8125 -1.828125 L 5.125 0 Z M 2.84375 -2.171875 C 3.375 -2.171875 3.773438 -2.285156 4.046875 -2.515625 C 4.328125 -2.753906 4.46875 -3.082031 4.46875 -3.5 C 4.46875 -3.925781 4.328125 -4.253906 4.046875 -4.484375 C 3.773438 -4.722656 3.375 -4.84375 2.84375 -4.84375 L 1.4375 -4.84375 L 1.4375 -2.171875 Z M 2.84375 -2.171875" transform="translate(187.426 249.935)"/></g></g></g><g fill="#100F0D"><g><g><path d="M 4.203125 -1.421875 L 1.234375 -1.421875 L 0.59375 0 L 0.015625 0 L 2.453125 -5.328125 L 3 -5.328125 L 5.4375 0 L 4.84375 0 Z M 4 -1.875 L 2.71875 -4.734375 L 1.453125 -1.875 Z M 4 -1.875" transform="translate(193.685 249.935)"/></g></g></g><g fill="#100F0D"><g><g><path d="M 0.875 -5.328125 L 3.03125 -5.328125 C 3.59375 -5.328125 4.085938 -5.210938 4.515625 -4.984375 C 4.953125 -4.765625 5.289062 -4.453125 5.53125 -4.046875 C 5.769531 -3.640625 5.890625 -3.175781 5.890625 -2.65625 C 5.890625 -2.144531 5.769531 -1.6875 5.53125 -1.28125 C 5.289062 -0.875 4.953125 -0.554688 4.515625 -0.328125 C 4.085938 -0.109375 3.59375 0 3.03125 0 L 0.875 0 Z M 3 -0.484375 C 3.46875 -0.484375 3.875 -0.578125 4.21875 -0.765625 C 4.570312 -0.953125 4.84375 -1.207031 5.03125 -1.53125 C 5.226562 -1.863281 5.328125 -2.238281 5.328125 -2.65625 C 5.328125 -3.082031 5.226562 -3.457031 5.03125 -3.78125 C 4.84375 -4.113281 4.570312 -4.375 4.21875 -4.5625 C 3.875 -4.75 3.46875 -4.84375 3 -4.84375 L 1.4375 -4.84375 L 1.4375 -0.484375 Z M 3 -0.484375" transform="translate(199.898 249.935)"/></g></g></g><g fill="#100F0D"><g><g><path d="M 3.203125 0.046875 C 2.671875 0.046875 2.191406 -0.0664062 1.765625 -0.296875 C 1.335938 -0.535156 1 -0.859375 0.75 -1.265625 C 0.507812 -1.679688 0.390625 -2.144531 0.390625 -2.65625 C 0.390625 -3.175781 0.507812 -3.640625 0.75 -4.046875 C 1 -4.460938 1.335938 -4.785156 1.765625 -5.015625 C 2.191406 -5.253906 2.671875 -5.375 3.203125 -5.375 C 3.722656 -5.375 4.195312 -5.253906 4.625 -5.015625 C 5.050781 -4.785156 5.382812 -4.460938 5.625 -4.046875 C 5.863281 -3.640625 5.984375 -3.175781 5.984375 -2.65625 C 5.984375 -2.144531 5.863281 -1.679688 5.625 -1.265625 C 5.382812 -0.859375 5.050781 -0.535156 4.625 -0.296875 C 4.195312 -0.0664062 3.722656 0.046875 3.203125 0.046875 Z M 3.203125 -0.453125 C 3.617188 -0.453125 3.992188 -0.546875 4.328125 -0.734375 C 4.671875 -0.929688 4.9375 -1.195312 5.125 -1.53125 C 5.320312 -1.875 5.421875 -2.25 5.421875 -2.65625 C 5.421875 -3.070312 5.320312 -3.445312 5.125 -3.78125 C 4.9375 -4.125 4.671875 -4.390625 4.328125 -4.578125 C 3.992188 -4.773438 3.617188 -4.875 3.203125 -4.875 C 2.773438 -4.875 2.390625 -4.773438 2.046875 -4.578125 C 1.703125 -4.390625 1.429688 -4.125 1.234375 -3.78125 C 1.046875 -3.445312 0.953125 -3.070312 0.953125 -2.65625 C 0.953125 -2.25 1.046875 -1.875 1.234375 -1.53125 C 1.429688 -1.195312 1.703125 -0.929688 2.046875 -0.734375 C 2.390625 -0.546875 2.773438 -0.453125 3.203125 -0.453125 Z M 3.203125 -0.453125" transform="translate(206.94 249.935)"/></g></g></g><g fill="#100F0D"><g><g><path d="M 4.851562 0.292969 C 7.359375 0.292969 9.367188 -1.417969 9.367188 -4.023438 C 9.367188 -6.421875 7.734375 -8.144531 5.34375 -8.144531 C 5.117188 -8.144531 4.808594 -8.136719 4.519531 -8.082031 L 5.117188 -10.519531 L 8.710938 -10.519531 C 8.929688 -10.519531 9.042969 -10.640625 9.042969 -10.851562 L 9.042969 -12.105469 C 9.042969 -12.324219 8.929688 -12.4375 8.710938 -12.4375 L 3.933594 -12.4375 C 3.75 -12.4375 3.609375 -12.347656 3.5625 -12.152344 L 2.273438 -7.222656 C 2.21875 -7.027344 2.285156 -6.90625 2.421875 -6.792969 L 3.109375 -6.273438 C 3.246094 -6.160156 3.382812 -6.144531 3.5625 -6.203125 C 4 -6.339844 4.421875 -6.429688 4.800781 -6.429688 C 6.128906 -6.429688 7.253906 -5.496094 7.253906 -4.03125 C 7.253906 -2.4375 6.121094 -1.539062 4.957031 -1.539062 C 3.984375 -1.539062 3.050781 -2.023438 2.398438 -3.070312 C 2.273438 -3.238281 2.113281 -3.289062 1.941406 -3.15625 L 0.800781 -2.421875 C 0.632812 -2.308594 0.589844 -2.128906 0.71875 -1.960938 C 1.828125 -0.273438 3.320312 0.292969 4.851562 0.292969 Z M 4.851562 0.292969" transform="translate(101.393 233.821)"/></g></g></g><g fill="#100F0D"><g><g><path d="M 5.304688 0.292969 C 7.765625 0.292969 9.621094 -1.382812 9.621094 -3.75 C 9.621094 -5.101562 8.972656 -6.121094 7.917969 -6.898438 C 8.695312 -7.554688 9.109375 -8.363281 9.109375 -9.359375 C 9.109375 -11.289062 7.628906 -12.726562 5.304688 -12.726562 C 2.988281 -12.726562 1.496094 -11.289062 1.496094 -9.359375 C 1.496094 -8.363281 1.910156 -7.554688 2.6875 -6.898438 C 1.652344 -6.121094 0.996094 -5.101562 0.996094 -3.75 C 0.996094 -1.382812 2.84375 0.292969 5.304688 0.292969 Z M 5.304688 -7.480469 C 4.347656 -7.480469 3.546875 -8.210938 3.546875 -9.222656 C 3.546875 -10.242188 4.265625 -10.945312 5.304688 -10.945312 C 6.332031 -10.945312 7.058594 -10.242188 7.058594 -9.222656 C 7.058594 -8.210938 6.257812 -7.480469 5.304688 -7.480469 Z M 5.304688 -1.609375 C 3.96875 -1.609375 3.0625 -2.566406 3.0625 -3.855469 C 3.0625 -5.183594 4.082031 -6.089844 5.3125 -6.089844 C 6.566406 -6.089844 7.554688 -5.15625 7.554688 -3.855469 C 7.554688 -2.574219 6.640625 -1.609375 5.304688 -1.609375 Z M 5.304688 -1.609375" transform="translate(125.028 233.821)"/></g></g></g><g fill="#100F0D"><g><g><path d="M 3.175781 0 C 3.394531 0 3.507812 -0.113281 3.507812 -0.332031 L 3.507812 -4.03125 L 5.925781 -4.03125 C 8.777344 -4.03125 10.308594 -5.546875 10.308594 -8.28125 C 10.308594 -10.785156 9.019531 -12.4375 5.59375 -12.4375 L 1.5625 -12.4375 C 1.34375 -12.4375 1.230469 -12.324219 1.230469 -12.105469 L 1.230469 -0.332031 C 1.230469 -0.113281 1.34375 0 1.5625 0 Z M 3.507812 -10.421875 L 5.304688 -10.421875 C 6.195312 -10.421875 8.046875 -10.40625 8.046875 -8.265625 C 8.046875 -6.066406 6.097656 -6.039062 5.304688 -6.039062 L 3.507812 -6.039062 Z M 3.507812 -10.421875" transform="translate(167.165 233.821)"/></g></g></g><g fill="#100F0D"><g><g><path d="M 8.265625 0 C 8.484375 0 8.597656 -0.113281 8.597656 -0.332031 L 8.597656 -1.683594 C 8.597656 -1.894531 8.484375 -2.015625 8.265625 -2.015625 L 3.507812 -2.015625 L 3.507812 -4.097656 L 7.621094 -4.097656 C 7.835938 -4.097656 7.953125 -4.210938 7.953125 -4.429688 L 7.953125 -5.691406 C 7.953125 -5.910156 7.835938 -6.023438 7.621094 -6.023438 L 3.507812 -6.023438 L 3.507812 -10.421875 L 8.265625 -10.421875 C 8.484375 -10.421875 8.597656 -10.542969 8.597656 -10.753906 L 8.597656 -12.105469 C 8.597656 -12.324219 8.484375 -12.4375 8.265625 -12.4375 L 1.5625 -12.4375 C 1.34375 -12.4375 1.230469 -12.324219 1.230469 -12.105469 L 1.230469 -0.332031 C 1.230469 -0.113281 1.34375 0 1.5625 0 Z M 8.265625 0" transform="translate(191.343 233.821)"/></g></g></g><g fill="#100F0D"><g><g><path d="M 6.355469 -12.4375 C 6.167969 -12.859375 5.820312 -12.859375 5.628906 -12.4375 L 0.265625 -0.386719 C 0.160156 -0.152344 0.265625 0 0.511719 0 L 2.300781 0 C 2.476562 0 2.617188 -0.0820312 2.679688 -0.257812 L 3.382812 -2.007812 L 8.605469 -2.007812 L 9.3125 -0.257812 C 9.375 -0.0820312 9.515625 0 9.691406 0 L 11.472656 0 C 11.722656 0 11.820312 -0.152344 11.722656 -0.386719 Z M 6 -8.476562 L 7.871094 -3.828125 L 4.121094 -3.828125 Z M 6 -8.476562" transform="translate(213.982 233.821)"/></g></g></g><g fill="#100F0D"><g><g><path d="M 3.164062 0 C 3.382812 0 3.496094 -0.113281 3.496094 -0.332031 L 3.496094 -5.578125 L 8.023438 -0.1875 C 8.136719 -0.046875 8.265625 0 8.429688 0 L 10.695312 0 C 10.972656 0 11.058594 -0.195312 10.875 -0.40625 L 5.707031 -6.519531 L 10.746094 -12.023438 C 10.9375 -12.234375 10.851562 -12.4375 10.574219 -12.4375 L 8.511719 -12.4375 C 8.339844 -12.4375 8.210938 -12.394531 8.089844 -12.257812 L 3.496094 -7.253906 L 3.496094 -12.105469 C 3.496094 -12.324219 3.382812 -12.4375 3.164062 -12.4375 L 1.5625 -12.4375 C 1.34375 -12.4375 1.230469 -12.324219 1.230469 -12.105469 L 1.230469 -0.332031 C 1.230469 -0.113281 1.34375 0 1.5625 0 Z M 3.164062 0" transform="translate(239.252 233.821)"/></g></g></g><g fill="#100F0D"><g><g><path d="M 4.859375 0.292969 C 7.035156 0.292969 9.085938 -0.730469 9.085938 -3.191406 C 9.085938 -5.375 7.351562 -6.339844 5.789062 -7.15625 C 4.371094 -7.878906 3.175781 -8.429688 3.175781 -9.515625 C 3.175781 -10.394531 3.953125 -10.738281 4.914062 -10.738281 C 5.707031 -10.738281 6.640625 -10.519531 7.503906 -10.152344 C 7.699219 -10.074219 7.855469 -10.144531 7.933594 -10.339844 L 8.363281 -11.628906 C 8.445312 -11.820312 8.386719 -11.976562 8.1875 -12.054688 C 7.070312 -12.476562 5.855469 -12.726562 4.875 -12.726562 C 2.785156 -12.726562 0.875 -11.742188 0.875 -9.351562 C 0.875 -7.359375 2.300781 -6.414062 3.804688 -5.585938 C 5.335938 -4.761719 6.777344 -4.179688 6.777344 -3.078125 C 6.777344 -2.160156 5.992188 -1.691406 4.800781 -1.691406 C 3.953125 -1.691406 2.882812 -1.894531 1.683594 -2.453125 C 1.480469 -2.542969 1.328125 -2.492188 1.246094 -2.300781 L 0.746094 -0.957031 C 0.664062 -0.753906 0.71875 -0.605469 0.929688 -0.511719 C 2.460938 0.0898438 3.667969 0.292969 4.859375 0.292969 Z M 4.859375 0.292969" transform="translate(263.859 233.821)"/></g></g></g></svg>